# xmcd
#
# Track frame offsets: 
#        150
#        12082
#        27536
#        44017
#        59608
#        75145
#        90181
#        104761
#        122961
#        136406
#        150101
#        168131
#
# Disc length: 2462 seconds
#
# Revision: 0
# Processed by: cddbd v1.5.2PL0 Copyright (c) Steve Scherf et al.
# Submitted via: ExactAudioCopy v1.0b1
#
DISCID=8c099c0c
DTITLE=8 Ball Aitken - The New Normal
DYEAR=2015
DGENRE=Country
TTITLE0=Shut The Front Door
TTITLE1=Witness Protection
TTITLE2=Girl In A Million
TTITLE3=Sleepy
TTITLE4=Don't Give Up Your Night Job
TTITLE5=Monkey In A Suit and A Tie
TTITLE6=Used Car Sales Woman
TTITLE7=Seven Bucks An Hour In A Chicken Suit
TTITLE8=Skydive
TTITLE9=You're Not Alone
TTITLE10=Love You and Stay
TTITLE11=Broken Hill
EXTD=
EXTT0=
EXTT1=
EXTT2=
EXTT3=
EXTT4=
EXTT5=
EXTT6=
EXTT7=
EXTT8=
EXTT9=
EXTT10=
EXTT11=
PLAYORDER=
